<?xml version="1.0" standalone="no"?>
<!DOCTYPE svg PUBLIC "-//W3C//DTD SVG 20010904//EN"
 "http://www.w3.org/TR/2001/REC-SVG-20010904/DTD/svg10.dtd">
<svg version="1.0" xmlns="http://www.w3.org/2000/svg"
 width="700.000000pt" height="700.000000pt" viewBox="0 0 700.000000 700.000000"
 preserveAspectRatio="xMidYMid meet">
<metadata>
Created by potrace 1.14, written by Peter Selinger 2001-2017
</metadata>
<g transform="translate(0.000000,700.000000) scale(0.100000,-0.100000)"
fill="#000000" stroke="none">
<path d="M3209 6776 c-2 -2 -51 -7 -109 -10 -58 -3 -123 -8 -145 -11 -22 -3
-58 -7 -80 -10 -113 -13 -141 -17 -155 -20 -8 -2 -35 -7 -60 -10 -168 -24
-560 -126 -675 -175 -11 -5 -56 -23 -100 -41 -158 -63 -354 -173 -398 -224
-62 -69 -65 -171 -8 -250 34 -48 86 -75 155 -82 46 -5 59 -1 126 36 186 102
303 156 454 206 303 101 618 157 1016 181 71 4 479 4 545 0 122 -8 242 -18
265 -21 14 -2 50 -7 80 -10 45 -5 253 -40 346 -59 11 -2 74 -18 138 -36 240
-64 452 -148 598 -237 85 -52 128 -66 183 -60 143 18 224 156 166 283 -24 54
-47 73 -150 133 -199 114 -367 184 -616 256 -99 29 -364 89 -436 99 -25 4 -57
9 -70 11 -43 7 -183 25 -244 30 -33 3 -78 8 -100 11 -47 6 -720 16 -726 10z"/>
<path d="M3208 6005 c-2 -2 -37 -6 -78 -9 -119 -10 -186 -19 -375 -52 -85 -15
-227 -49 -313 -75 -53 -16 -104 -32 -112 -34 -8 -2 -58 -19 -110 -38 -613
-224 -1153 -652 -1494 -1186 -60 -93 -68 -115 -67 -174 2 -116 90 -197 211
-194 94 3 125 26 212 155 113 171 193 268 332 407 72 72 145 141 161 155 268
219 563 381 882 486 95 31 262 76 323 87 14 3 36 8 50 11 27 6 55 10 170 27
41 5 86 12 100 14 146 23 636 23 782 0 13 -2 50 -7 83 -11 33 -4 67 -8 75 -9
302 -40 706 -181 985 -343 101 -58 290 -187 331 -226 7 -6 31 -27 55 -46 138
-110 351 -345 502 -552 96 -133 126 -153 224 -153 63 0 76 3 115 30 83 58 113
174 67 260 -52 96 -258 356 -393 495 -292 300 -611 528 -956 680 -52 23 -113
50 -135 60 -76 33 -290 101 -425 135 -308 75 -546 102 -922 103 -152 0 -278
-1 -280 -3z"/>
<path d="M3328 5245 c-2 -1 -39 -5 -83 -9 -68 -6 -186 -22 -298 -42 -16 -2
-81 -18 -145 -35 -369 -97 -745 -295 -1030 -542 -83 -71 -262 -258 -333 -347
-122 -152 -265 -383 -336 -539 -60 -135 -134 -342 -148 -421 -3 -14 -7 -36
-10 -50 -13 -58 -31 -177 -42 -280 -15 -144 -8 -657 12 -770 2 -14 7 -47 10
-75 21 -190 52 -376 90 -552 3 -13 7 -33 10 -45 2 -13 14 -62 26 -110 34 -139
100 -199 221 -201 75 -1 142 38 176 105 30 58 31 109 4 218 -24 101 -68 317
-77 380 -3 25 -10 70 -15 100 -5 30 -12 80 -15 110 -3 30 -8 71 -10 90 -27
215 -27 739 0 840 2 8 7 31 10 50 11 64 25 124 46 192 11 37 20 69 19 70 -1 2
22 55 50 118 176 399 446 729 788 964 92 63 297 173 382 206 30 11 64 25 75
30 30 14 99 36 205 64 211 55 343 71 590 71 194 -1 295 -9 425 -36 28 -6 61
-13 75 -15 176 -33 456 -148 658 -270 68 -41 218 -147 232 -163 3 -3 27 -24
55 -46 27 -22 93 -83 146 -135 357 -356 589 -776 635 -1150 10 -85 7 -279 -6
-350 -56 -319 -202 -538 -408 -613 -44 -15 -81 -20 -157 -20 -264 0 -442 98
-539 296 -31 64 -81 200 -91 247 -2 8 -10 42 -19 75 -9 33 -18 67 -20 75 -110
455 -247 675 -501 807 -62 32 -168 70 -220 79 -16 2 -55 8 -85 13 -58 10 -344
7 -395 -3 -345 -70 -549 -216 -688 -492 -83 -164 -121 -356 -121 -609 0 -189
13 -299 70 -590 11 -60 89 -239 157 -363 38 -70 75 -137 81 -149 6 -13 14 -23
19 -23 4 0 7 -5 7 -10 0 -6 28 -51 63 -101 346 -506 805 -862 1317 -1024 153
-48 203 -54 263 -31 140 53 182 224 78 327 -38 37 -59 47 -229 99 -169 53
-393 171 -547 289 -90 69 -110 87 -226 201 -186 182 -361 423 -485 669 -83
162 -93 193 -140 451 -3 19 -7 125 -9 235 -3 183 -1 208 21 295 75 299 254
432 577 430 160 -1 238 -18 317 -68 126 -80 182 -194 279 -564 76 -289 135
-436 228 -574 83 -121 227 -243 351 -295 26 -11 56 -24 67 -29 89 -40 282 -73
425 -73 141 1 243 22 358 73 308 140 535 465 609 873 18 101 24 392 10 510
-44 368 -231 769 -530 1136 -395 485 -917 819 -1492 956 -55 14 -113 27 -130
30 -16 2 -39 7 -50 9 -11 2 -48 7 -83 11 -35 4 -80 9 -100 12 -39 5 -419 12
-424 8z"/>
<path d="M3457 4464 c-1 -1 -54 -5 -117 -8 -63 -4 -126 -9 -140 -11 -88 -12
-124 -18 -200 -36 -623 -144 -1064 -584 -1239 -1238 -24 -87 -26 -97 -35 -152
-3 -19 -10 -58 -15 -87 -33 -171 -36 -576 -6 -744 3 -16 7 -38 9 -50 89 -494
252 -909 508 -1291 54 -81 183 -255 197 -267 4 -3 19 -21 35 -40 171 -209 243
-252 362 -214 130 41 182 190 106 303 -15 22 -50 63 -77 93 -28 29 -71 78 -95
108 -25 30 -47 57 -50 60 -14 13 -113 154 -166 235 -55 85 -191 343 -226 430
-48 119 -121 345 -134 415 -3 14 -9 41 -14 60 -5 19 -12 49 -14 66 -3 17 -13
66 -21 110 -70 365 -14 818 141 1142 61 127 163 274 240 347 79 74 107 97 160
132 225 153 499 227 834 227 231 -1 450 -50 624 -142 372 -195 648 -620 756
-1165 33 -163 44 -192 90 -231 92 -77 244 -58 307 39 45 69 48 119 13 285 -6
30 -13 65 -16 77 -2 12 -20 75 -39 140 -191 660 -603 1132 -1145 1313 -122 42
-303 78 -426 85 -124 8 -204 12 -207 9z"/>
<path d="M3420 2797 c-60 -31 -81 -52 -106 -103 -24 -49 -26 -62 -21 -129 8
-99 50 -283 97 -427 161 -490 478 -870 890 -1065 135 -64 304 -119 425 -139
20 -3 47 -8 59 -10 94 -19 435 -26 583 -12 106 10 168 47 207 125 31 63 14
166 -37 221 -44 47 -96 66 -172 62 -197 -11 -462 -4 -550 14 -196 40 -375 114
-515 214 -288 205 -506 604 -570 1043 -5 37 -14 78 -19 91 -15 41 -63 90 -106
109 -47 22 -129 24 -165 6z"/>
</g>
</svg>
