<svg width="512" height="512" viewBox="0 0 512 512" fill="none" xmlns="http://www.w3.org/2000/svg">
<path d="M63.28 202C60.5818 202.024 57.9252 201.334 55.58 200C53.8598 199.033 52.3498 197.733 51.1382 196.175C49.9266 194.618 49.0378 192.834 48.5238 190.929C48.0098 189.024 47.8809 187.035 48.1447 185.08C48.4084 183.124 49.0596 181.241 50.06 179.54C69.34 147.36 128 72.25 256 72.25C311.47 72.25 360.12 86.82 400.53 115.54C433.79 139.11 452.43 165.79 461.31 178.64C462.436 180.26 463.227 182.088 463.636 184.018C464.045 185.948 464.063 187.941 463.691 189.878C463.318 191.815 462.561 193.658 461.466 195.299C460.37 196.939 458.957 198.344 457.31 199.43C453.944 201.655 449.844 202.482 445.879 201.735C441.914 200.988 438.396 198.727 436.07 195.43C420 172.32 371 102 256 102C143.75 102 93 166.71 76.47 194.46C75.1419 196.777 73.219 198.698 70.9002 200.023C68.5814 201.349 65.9508 202.031 63.28 202Z" fill="black"/>
<path d="M320.49 496C319.214 496.015 317.94 495.871 316.7 495.57C223.85 472.57 189.18 379.75 187.77 375.89L187.55 375.04C186.79 372.36 168.16 308.71 196.76 271.43C209.87 254.43 229.81 245.71 256.14 245.71C280.62 245.71 298.28 253.32 310.42 269.07C320.42 281.93 324.42 297.79 328.29 313.07C336.42 344.89 342.29 361.6 376.08 363.32C390.92 364.07 400.67 355.39 406.2 348C421.15 327.85 423.75 295 412.48 266C398 228.57 346.61 158 256 158C217.32 158 181.78 170.43 153.28 193.79C129.69 213.14 111 240.46 102 268.54C85.31 320.82 107.2 403 107.41 403.75C107.921 405.663 108.044 407.658 107.772 409.619C107.499 411.58 106.837 413.467 105.824 415.167C104.811 416.868 103.467 418.349 101.873 419.523C100.279 420.696 98.4652 421.538 96.54 422C92.6507 423.034 88.5109 422.504 85.0079 420.522C81.5049 418.541 78.9175 415.266 77.8 411.4C76.8 407.65 53.42 320 72.7 259.58C93.7 194.11 158.51 128.11 256.03 128.11C301.1 128.11 343.68 143.43 379.22 172.36C406.74 194.86 429.22 225.08 440.98 255.29C455.93 293.86 451.92 337.15 430.79 365.43C416.71 384.29 396.66 394.15 374.45 393.08C316.59 390.18 306.19 349.79 298.61 320.33C290.81 290.11 285.82 275.54 256.03 275.54C239.67 275.54 228.18 280.04 221.03 289.36C211.28 302.11 210.52 322.04 211.6 336.5C212.309 346.574 214.017 356.553 216.7 366.29C219.08 372.29 250.07 448.29 324.29 466.68C326.208 467.134 328.017 467.966 329.612 469.125C331.206 470.285 332.554 471.749 333.578 473.434C334.601 475.119 335.279 476.991 335.573 478.94C335.867 480.89 335.771 482.878 335.29 484.79C334.384 488.018 332.448 490.86 329.775 492.884C327.103 494.908 323.842 496.002 320.49 496Z" fill="black"/>
<path d="M201.31 489.14C199.229 489.144 197.168 488.729 195.251 487.92C193.333 487.111 191.599 485.924 190.15 484.43C152.99 445.43 131.97 401.82 124.06 347.29V347C119.62 310.9 126.12 259.79 157.97 224.65C181.48 198.72 214.53 185.54 256.03 185.54C305.11 185.54 343.68 208.36 367.73 251.43C385.18 282.72 388.64 313.9 388.73 315.18C388.913 317.154 388.705 319.144 388.117 321.037C387.53 322.93 386.575 324.688 385.307 326.212C384.039 327.735 382.483 328.993 380.728 329.915C378.973 330.836 377.054 331.402 375.08 331.58C371.097 332.012 367.104 330.861 363.963 328.374C360.821 325.888 358.784 322.266 358.29 318.29C355.656 299.581 349.602 281.517 340.43 265C321.79 232.11 293.43 215.39 255.92 215.39C223.52 215.39 198.17 225.14 180.73 244.39C155.59 272.14 150.73 314.89 154.18 343.17C161.11 391.39 179.64 429.75 212.36 464.03C213.726 465.451 214.792 467.131 215.495 468.972C216.198 470.813 216.524 472.777 216.453 474.746C216.382 476.715 215.916 478.65 215.082 480.436C214.248 482.221 213.064 483.821 211.6 485.14C208.78 487.696 205.116 489.12 201.31 489.14Z" fill="black"/>
<path d="M372.5 446.18C340 446.18 312.37 437.18 290.26 419.29C245.84 383.5 240.86 325.21 240.64 322.75C240.327 318.712 241.631 314.715 244.265 311.639C246.899 308.562 250.647 306.658 254.685 306.345C258.723 306.032 262.72 307.336 265.796 309.97C268.873 312.604 270.777 316.352 271.09 320.39C271.2 321.25 275.64 368.93 309.88 396.39C330.14 412.57 357.22 418.99 390.59 415.24C394.578 414.756 398.596 415.871 401.764 418.341C404.933 420.811 406.995 424.434 407.5 428.42C407.718 430.389 407.542 432.382 406.983 434.282C406.423 436.182 405.49 437.952 404.239 439.487C402.988 441.023 401.443 442.295 399.696 443.228C397.948 444.16 396.032 444.736 394.06 444.92C386.904 445.755 379.705 446.176 372.5 446.18ZM398.18 48.79C385.5 40.54 340.54 16 256 16C167.26 16 122.19 43.11 112.22 50C111.561 50.4042 110.945 50.8732 110.38 51.4C110.32 51.4577 110.243 51.493 110.16 51.5C108.568 52.89 107.29 54.6035 106.413 56.5262C105.535 58.4488 105.077 60.5365 105.07 62.65C105.097 64.6312 105.515 66.5875 106.3 68.4068C107.085 70.2262 108.221 71.8728 109.643 73.2523C111.065 74.6318 112.746 75.7171 114.588 76.446C116.431 77.1749 118.399 77.5331 120.38 77.5C123.555 77.4979 126.654 76.5243 129.26 74.71C129.69 74.39 168.48 45.89 256.03 45.89C343.58 45.89 382.58 74.29 383 74.5C385.662 76.4743 388.895 77.5275 392.21 77.5C394.193 77.5304 396.162 77.1689 398.005 76.4364C399.847 75.7038 401.527 74.6145 402.948 73.231C404.368 71.8475 405.502 70.1971 406.283 68.3745C407.064 66.5518 407.478 64.5929 407.5 62.61C407.501 59.6399 406.614 56.7373 404.953 54.2748C403.293 51.8123 400.934 49.9023 398.18 48.79Z" fill="black"/>
</svg>
